<?xml version="1.0" encoding="utf-8"?>
<!-- Generator: Adobe Illustrator 25.2.3, SVG Export Plug-In . SVG Version: 6.00 Build 0)  -->
<svg version="1.1" id="Layer_1" xmlns="http://www.w3.org/2000/svg" xmlns:xlink="http://www.w3.org/1999/xlink" x="0px" y="0px"
	 viewBox="0 0 526.3 236" style="enable-background:new 0 0 526.3 236;" xml:space="preserve">
<style type="text/css">
	.st0{fill:#0083BE;}
	.st1{fill:url(#SVGID_1_);}
</style>
<g>
	<path class="st0" d="M135.7,155.4H80.2V79.1h15.2v62.1h40.3V155.4z M217.4,155.4h-16.2l-6.6-17.8H162l-6.6,17.8h-15.9l29.7-76.3
		h18.5L217.4,155.4z M167.2,123.7h22.1l-11-29.5L167.2,123.7z M254.5,79.1c18.2,0,28,8.6,28,23.2c0,12.5-8.7,21.1-23.4,22.5
		l23.5,30.6h-18.4l-22.2-30.4h-4.5v30.4h-15.2V79.1H254.5z M237.4,93.1v18.7h16.8c8.3,0,12.6-3.1,12.6-9.5c0-6.3-4.5-9.2-12.6-9.2
		H237.4z M354,89.4l-11,10.7c-4.3-5-10.6-8-18.4-8c-14,0-24.1,10.2-24.1,25.1c0,15.6,10.6,25.3,23.8,25.3c12.4,0,19.7-6,21.7-16.8
		h-19.4v-12.7h35.1c0.2,1.5,0.2,2.9,0.2,4.3c0,23.1-15.6,39.4-37.3,39.4c-21.1,0-39.9-14.9-39.9-39.5c0-23.1,16.8-39.6,40.3-39.6
		C337.2,77.7,347.3,82.1,354,89.4z M446.1,117.3c0,22.8-16.6,39.6-40.1,39.6c-23.5,0-40.1-16.8-40.1-39.6
		c0-22.8,16.6-39.6,40.1-39.6C429.5,77.7,446.1,94.5,446.1,117.3z M381.8,117.3c0,14.8,10.2,25,24.2,25c14.1,0,24.2-10.1,24.2-25
		s-10.1-25-24.2-25C392,92.3,381.8,102.5,381.8,117.3z"/>
	<linearGradient id="SVGID_1_" gradientUnits="userSpaceOnUse" x1="434.95" y1="106.5766" x2="420.4179" y2="143.072">
		<stop  offset="0" style="stop-color:#B6BF00"/>
		<stop  offset="1" style="stop-color:#0083BE;stop-opacity:0.99"/>
	</linearGradient>
	<path class="st1" d="M434,88.1c-6.1-5.3-16.9,2.3-9.9,11.9c3.8,4.3,6.1,10.3,6.1,17.3c0,14.8-10.1,25-24.2,25c-0.1,0-0.3,0-0.4,0
		c0,5,0,9.7,0,14.6c0.1,0,0.3,0,0.4,0c23.5,0,40.1-16.8,40.1-39.6C446.1,105.4,441.6,95.2,434,88.1z"/>
</g>
</svg>
